<svg id="Capa_1" enable-background="new 0 0 512 512" height="512" viewBox="0 0 512 512" width="512" xmlns="http://www.w3.org/2000/svg"><g><g><path d="m444.657 240.882c20.202 0 36.58-16.377 36.58-36.58 0-20.202-16.377-36.58-36.58-36.58-3.97 0-7.788.641-11.367 1.81-.693-19.593-16.784-35.266-36.546-35.266-7.7 0-14.84 2.384-20.734 6.448-4.411-15.247-18.465-26.4-35.133-26.4-9.521 0-18.191 3.64-24.699 9.602-6.271-11.133-18.196-18.657-31.885-18.657-11.402 0-21.584 5.218-28.292 13.395-6.708-8.177-16.89-13.395-28.292-13.395-13.689 0-25.614 7.524-31.885 18.657-6.508-5.962-15.178-9.602-24.699-9.602-16.668 0-30.723 11.153-35.133 26.4-5.894-4.063-13.034-6.448-20.734-6.448-19.762 0-35.854 15.673-36.546 35.266-3.579-1.17-7.397-1.81-11.367-1.81-20.202 0-36.58 16.377-36.58 36.58 0 20.202 16.377 36.58 36.58 36.58" fill="#e4f6ff"/><path d="m227.71 105.255c9.92 0 18.91 3.95 25.5 10.37-12.25 3.35-21.92 12.91-25.44 25.09-5.89-4.06-13.03-6.45-20.73-6.45-19.77 0-35.86 15.67-36.55 35.27-3.58-1.17-7.4-1.81-11.37-1.81-20.2 0-36.58 16.37-36.58 36.58 0 20.2 16.38 36.58 36.58 36.58h-91.78c-20.2 0-36.58-16.38-36.58-36.58 0-20.21 16.38-36.58 36.58-36.58 3.97 0 7.79.64 11.37 1.81.69-19.6 16.78-35.27 36.54-35.27 7.7 0 14.84 2.39 20.74 6.45 4.41-15.25 18.46-26.4 35.13-26.4 9.52 0 18.19 3.64 24.7 9.6 6.27-11.13 18.2-18.66 31.89-18.66z" fill="#d3effb"/><path d="m472.576 282.782h-433.152c-17.631 0-31.924-14.293-31.924-31.924 0-17.631 14.293-31.924 31.924-31.924h433.152c17.631 0 31.924 14.293 31.924 31.924 0 17.631-14.293 31.924-31.924 31.924z" fill="#f9f6f9"/><path d="m143.18 282.788h-103.76c-17.63 0-31.92-14.3-31.92-31.93 0-8.81 3.57-16.79 9.35-22.57 5.77-5.78 13.75-9.35 22.57-9.35h103.76c-8.82 0-16.8 3.57-22.58 9.35s-9.35 13.76-9.35 22.57c0 17.63 14.3 31.93 31.93 31.93z" fill="#dfeaef"/><path d="m472.58 282.785c-.8 10.19-1.57 19.7-2.34 28.6-2.88 33.37-5.68 58.05-9.44 76.95-7.99 40.17-43.34 69.03-84.3 69.03h-241c-40.96 0-76.31-28.86-84.3-69.03-3.76-18.9-6.56-43.58-9.44-76.95-.77-8.9-1.54-18.41-2.34-28.6z" fill="#f9f6f9"/><path d="m472.58 282.785c-.8 10.19-1.57 19.7-2.34 28.6h-428.48c-.77-8.9-1.54-18.41-2.34-28.6z" fill="#dfeaef"/><path d="m182.489 457.364h-46.99c-40.96 0-76.31-28.86-84.3-69.03-4.76-23.94-7.98-57.15-11.77-105.55h84.44c2.32 48.4 4.28 81.61 7.19 105.55 4.87 40.17 26.44 69.03 51.43 69.03z" fill="#dfeaef"/><g><g fill="#818181"><path d="m122.106 411.143h-5.517c-12.104 0-21.916 9.812-21.916 21.916v52.174c0 10.561 8.561 19.122 19.122 19.122 9.018 0 16.811-6.301 18.699-15.12l11.043-51.589c2.92-13.641-7.48-26.503-21.431-26.503z"/><path d="m389.894 411.143h5.517c12.104 0 21.916 9.812 21.916 21.916v52.174c0 10.561-8.561 19.122-19.122 19.122-9.018 0-16.811-6.301-18.699-15.12l-11.043-51.589c-2.92-13.641 7.48-26.503 21.431-26.503z"/></g><g fill="#454545"><path d="m119.536 503.476c-1.82.57-3.75.88-5.74.88-10.57 0-19.13-8.56-19.13-19.13v-52.17c0-12.1 9.82-21.92 21.92-21.92h5.52c1.01 0 1.99.07 2.96.21-10.69 1.45-18.92 10.62-18.92 21.71v52.17c0 8.57 5.63 15.82 13.39 18.25z"/><path d="m403.936 503.476c-1.81.57-3.74.88-5.74.88-4.5 0-8.71-1.57-12.02-4.25s-5.73-6.46-6.67-10.87l-11.05-51.59c-2.92-13.64 7.48-26.51 21.43-26.51h5.52c1.02 0 2.02.07 3 .21-12.42 1.65-21.18 13.64-18.47 26.3l11.04 51.59c.94 4.41 3.36 8.19 6.68 10.87 1.85 1.5 3.97 2.65 6.28 3.37z"/></g></g></g><g><path d="m250.856 69.646c5.022 4.733 7.644 7.479 7.644 13.39 0 4.142 3.357 7.5 7.5 7.5s7.5-3.358 7.5-7.5c0-12.662-7.142-19.392-12.356-24.306-5.022-4.733-7.644-7.479-7.644-13.389 0-5.911 2.621-8.656 7.644-13.39 5.215-4.914 12.356-11.645 12.356-24.306 0-4.142-3.357-7.5-7.5-7.5s-7.5 3.358-7.5 7.5c0 5.911-2.621 8.656-7.644 13.389-5.214 4.914-12.356 11.645-12.356 24.306 0 12.662 7.142 19.392 12.356 24.306z"/><path d="m177.827 69.646c5.022 4.733 7.644 7.479 7.644 13.39 0 4.142 3.357 7.5 7.5 7.5s7.5-3.358 7.5-7.5c0-12.662-7.142-19.392-12.356-24.306-5.022-4.733-7.644-7.479-7.644-13.389 0-5.911 2.621-8.656 7.644-13.39 5.215-4.914 12.356-11.645 12.356-24.306 0-4.142-3.357-7.5-7.5-7.5s-7.5 3.358-7.5 7.5c0 5.911-2.621 8.656-7.644 13.389-5.215 4.914-12.356 11.645-12.356 24.306 0 12.662 7.141 19.392 12.356 24.306z"/><path d="m323.886 69.646c5.022 4.733 7.644 7.479 7.644 13.39 0 4.142 3.357 7.5 7.5 7.5s7.5-3.358 7.5-7.5c0-12.662-7.142-19.392-12.356-24.306-5.022-4.733-7.644-7.479-7.644-13.389 0-5.911 2.621-8.656 7.644-13.39 5.215-4.914 12.356-11.645 12.356-24.306 0-4.142-3.357-7.5-7.5-7.5s-7.5 3.358-7.5 7.5c0 5.911-2.621 8.656-7.644 13.389-5.215 4.914-12.356 11.645-12.356 24.306-.001 12.662 7.141 19.392 12.356 24.306z"/><path d="m512 250.858c0-16.432-10.108-30.542-24.43-36.454.769-3.284 1.171-6.656 1.171-10.094 0-24.306-19.774-44.08-44.08-44.08-1.692 0-3.378.097-5.051.289-4.622-19.497-22.023-33.749-42.869-33.749-5.888 0-11.635 1.159-16.977 3.395-7.552-14.089-22.475-23.345-38.884-23.345-8.196 0-16.131 2.262-23.009 6.477-8.293-9.74-20.544-15.537-33.581-15.537-10.468 0-20.422 3.673-28.29 10.276-7.868-6.603-17.822-10.276-28.29-10.276-13.037 0-25.288 5.798-33.581 15.537-6.878-4.215-14.813-6.477-23.009-6.477-16.409 0-31.332 9.256-38.884 23.345-5.342-2.236-11.089-3.395-16.977-3.395-2.55 0-5.112.223-7.617.663-4.079.717-6.806 4.605-6.089 8.685s4.61 6.804 8.685 6.089c1.65-.29 3.34-.437 5.021-.437 5.913 0 11.609 1.772 16.475 5.125 1.982 1.367 4.506 1.699 6.777.888s4.014-2.664 4.684-4.98c3.572-12.355 15.056-20.983 27.925-20.983 7.286 0 14.26 2.71 19.636 7.632 1.688 1.544 3.988 2.235 6.246 1.874 2.26-.361 4.23-1.732 5.353-3.725 5.157-9.154 14.872-14.841 25.355-14.841 8.738 0 16.936 3.884 22.491 10.656 1.425 1.737 3.553 2.743 5.799 2.743s4.374-1.007 5.799-2.743c5.556-6.772 13.753-10.656 22.491-10.656 10.483 0 20.198 5.687 25.355 14.841 1.122 1.993 3.093 3.365 5.353 3.725 2.259.361 4.559-.33 6.246-1.874 5.376-4.922 12.35-7.632 19.636-7.632 12.869 0 24.353 8.629 27.925 20.983.67 2.316 2.413 4.169 4.684 4.98 2.272.811 4.794.479 6.777-.888 4.865-3.353 10.562-5.125 16.475-5.125 15.738 0 28.501 12.314 29.055 28.034.083 2.355 1.268 4.534 3.199 5.884 1.934 1.351 4.387 1.713 6.626.981 2.922-.955 5.963-1.439 9.04-1.439 16.035 0 29.08 13.045 29.08 29.08 0 2.435-.302 4.818-.884 7.131-.094-.001-.186-.007-.28-.007h-433.153c-.094 0-.186.006-.28.007-.582-2.313-.884-4.696-.884-7.131 0-16.035 13.045-29.08 29.08-29.08 3.077 0 6.118.484 9.04 1.439 2.238.732 4.69.37 6.624-.979 1.931-1.349 3.116-3.526 3.201-5.88.192-5.366 1.851-10.547 4.794-14.982 2.29-3.451 1.35-8.106-2.102-10.396-3.452-2.291-8.106-1.35-10.396 2.102-2.843 4.283-4.896 9.019-6.091 13.989-1.68-.194-3.371-.292-5.07-.292-24.306 0-44.08 19.774-44.08 44.08 0 3.438.401 6.809 1.171 10.094-14.323 5.912-24.431 20.021-24.431 36.453 0 19.354 14.023 35.484 32.44 38.792 3.529 44.272 6.742 76.701 11.404 100.149 5.14 25.846 20.832 48.07 43.328 61.633v33.802c0 14.68 11.942 26.622 26.622 26.622 12.474 0 23.422-8.853 26.033-21.05l5.552-25.94h221.239l5.552 25.94c2.611 12.197 13.56 21.05 26.033 21.05 14.68 0 26.622-11.942 26.622-26.622v-33.799c17.623-10.637 31.299-26.807 38.762-45.973 1.503-3.86-.408-8.207-4.269-9.71-3.856-1.502-8.206.408-9.71 4.268-5.117 13.144-13.729 24.605-24.783 33.233v-.193c0-16.22-13.196-29.416-29.416-29.416h-5.518c-8.925 0-17.262 3.98-22.874 10.92-5.611 6.94-7.759 15.926-5.891 24.653l2.28 10.649h-214.814l2.28-10.649c1.868-8.727-.279-17.713-5.891-24.653s-13.949-10.92-22.874-10.92h-5.518c-16.22 0-29.416 13.196-29.416 29.416v.212c-14.723-11.464-24.921-27.818-28.616-46.398-4.46-22.429-7.59-53.795-11.019-96.591h416.926c-2.702 33.779-5.244 60.888-8.497 82.144-.626 4.095 2.185 7.922 6.279 8.548.385.059.767.087 1.145.087 3.641 0 6.836-2.657 7.404-6.366 3.378-22.073 5.985-50.087 8.767-85.045 18.415-3.309 32.438-19.439 32.438-38.793zm-133.316 173.137c2.75-3.401 6.836-5.352 11.21-5.352h5.518c7.949 0 14.416 6.467 14.416 14.416v52.174c0 6.408-5.214 11.622-11.622 11.622-5.445 0-10.226-3.865-11.365-9.189l-11.043-51.589c-.917-4.277.136-8.681 2.886-12.082zm-276.511 9.064c0-7.949 6.467-14.416 14.416-14.416h5.518c4.374 0 8.46 1.951 11.21 5.352s3.803 7.805 2.887 12.082l-11.043 51.589c-1.14 5.325-5.92 9.189-11.365 9.189-6.408 0-11.622-5.214-11.622-11.622v-52.174zm370.403-157.777h-433.152c-13.468 0-24.424-10.957-24.424-24.424s10.956-24.424 24.424-24.424h433.152c13.468 0 24.424 10.957 24.424 24.424s-10.956 24.424-24.424 24.424z"/></g></g></svg>